<?xml version="1.0" encoding="UTF-8" standalone="no"?>
<!DOCTYPE svg PUBLIC "-//W3C//DTD SVG 1.1//EN" "http://www.w3.org/Graphics/SVG/1.1/DTD/svg11.dtd">
<svg width="100%" height="100%" viewBox="0 0 973 973" version="1.1" xmlns="http://www.w3.org/2000/svg" xmlns:xlink="http://www.w3.org/1999/xlink" xml:space="preserve" xmlns:serif="http://www.serif.com/" style="fill-rule:evenodd;clip-rule:evenodd;stroke-linejoin:round;stroke-miterlimit:2;">
    <g transform="matrix(1,0,0,1,-220.979,-113.078)">
        <g transform="matrix(5.55556,0,0,5.55556,-57.6344,-164.722)">
            <g transform="matrix(1,0,0,1,0,-9176.02)">
                <path d="M95.629,9275.68C95.629,9271.34 99.012,9269.87 101.66,9269.87C104.086,9269.87 107.249,9271.78 107.249,9275.83L107.249,9293.7L118.942,9293.7L118.942,9275.46C118.942,9264.79 114.456,9258.54 105.262,9258.54C102.247,9258.54 96.805,9260.45 95.629,9264.79L95.629,9241.41L83.935,9241.41L83.935,9293.7L95.629,9293.7L95.629,9275.68ZM182.477,9364.36L176.373,9362.66C174.24,9362.15 173.799,9361.34 173.799,9360.46C173.799,9359.13 175.196,9358.55 176.668,9358.55C178.873,9358.55 180.123,9359.5 180.123,9361.63L191.08,9361.63C191.154,9352.74 183.286,9349.79 176.079,9349.79C168.429,9349.79 162.104,9354.87 162.104,9360.02C162.104,9362.52 161.959,9368.62 172.696,9371.56L177.034,9372.74C179.534,9373.4 180.123,9373.69 180.123,9374.72C180.123,9376.12 178.432,9377 176.518,9377C173.651,9377 172.546,9374.95 172.546,9373.48L161.591,9373.48C161.591,9381.34 169.238,9385.61 176.518,9385.61C183.801,9385.61 192.037,9382.3 192.037,9374.72C192.037,9372.52 191.302,9366.71 182.477,9364.36M101.366,9374.87C97.468,9374.87 94.233,9371.63 94.233,9367.74C94.233,9363.84 97.468,9360.6 101.366,9360.6C103.94,9360.6 106.147,9361.93 107.397,9363.99L116.957,9358.25C113.574,9353.18 108.5,9349.79 101.882,9349.79C97.884,9349.79 94.111,9350.89 90.984,9352.85C90.969,9352.86 90.953,9352.87 90.936,9352.88C90.271,9353.3 89.637,9353.77 89.036,9354.27C88.984,9354.31 88.929,9354.35 88.879,9354.4C88.259,9354.92 87.673,9355.49 87.135,9356.1C84.468,9359.1 82.833,9363.06 82.833,9367.74C82.833,9378.62 91.659,9385.61 101.882,9385.61C108.5,9385.61 113.648,9382.23 117.031,9377.15L107.251,9371.71C105.925,9373.62 103.793,9374.87 101.366,9374.87M102.762,9314.69C106.66,9314.69 109.895,9317.93 109.895,9321.83C109.895,9325.72 106.66,9328.96 102.762,9328.96C98.864,9328.96 95.629,9325.94 95.629,9322.05C95.629,9318.15 98.864,9314.69 102.762,9314.69M95.629,9346.68L95.629,9336.02C97.836,9338.45 100.997,9339.84 105.115,9339.84C113.572,9339.84 121.809,9333.01 121.809,9321.9C121.809,9310.8 113.572,9304.03 105.115,9304.03C101.364,9304.03 96.953,9305.79 94.966,9309.84L94.966,9304.91L83.935,9304.91L83.935,9353.84C86.853,9350.38 90.895,9347.87 95.629,9346.68M127.066,9304.91L127.066,9339.18L138.761,9339.18L138.761,9327.93C138.761,9317.63 141.481,9315.13 145.894,9315.13C146.924,9315.13 148.761,9315.13 151.19,9316.02L154.057,9304.99C152.144,9304.1 150.453,9304.03 148.983,9304.03C144.57,9304.03 139.937,9306.82 138.172,9313.37L138.172,9304.91L127.066,9304.91ZM171.885,9293.7L183.432,9293.7L183.432,9268.03L190.639,9268.03L190.639,9259.43L183.432,9259.43L183.432,9247.14L171.885,9247.14L171.885,9259.43L165.633,9259.43L165.633,9268.03L171.885,9268.03L171.885,9293.7ZM166.924,9321.97C166.924,9318.07 170.159,9314.84 174.057,9314.84C177.955,9314.84 181.192,9318.07 181.192,9321.97C181.192,9325.87 177.955,9329.11 174.057,9329.11C170.159,9329.11 166.924,9325.87 166.924,9321.97M192.443,9321.97C192.443,9311.09 183.84,9304.03 174.057,9304.03C164.424,9304.03 155.893,9311.09 155.893,9321.97C155.893,9332.78 164.424,9339.84 174.057,9339.84C183.84,9339.84 192.443,9332.78 192.443,9321.97M132.178,9364.5C133.28,9360.09 137.25,9359.43 139.015,9359.43C140.783,9359.43 144.974,9360.09 145.855,9364.5L132.178,9364.5ZM138.869,9349.79C129.088,9349.79 121.072,9356.49 121.072,9367.3C121.072,9368.18 121.218,9370.09 121.292,9371.05L145.855,9371.05C145.414,9374.28 141.737,9376.27 137.987,9376.27C136.076,9376.27 133.426,9375.75 131.441,9373.4C130.045,9374.5 125.264,9377.81 123.353,9379.21C126.956,9383.99 133.426,9385.61 138.869,9385.61C148.725,9385.61 157.108,9378.4 157.108,9367.59C157.108,9356.78 148.725,9349.79 138.869,9349.79M143.831,9268.18C145.596,9268.18 149.788,9268.84 150.673,9273.25L136.993,9273.25C138.096,9268.84 142.068,9268.18 143.831,9268.18M150.673,9279.8C150.229,9283.03 146.553,9285.02 142.803,9285.02C140.889,9285.02 138.243,9284.5 136.257,9282.15C134.861,9283.25 130.08,9286.56 128.167,9287.96C131.771,9292.74 138.243,9294.36 143.685,9294.36C153.54,9294.36 161.924,9287.15 161.924,9276.34C161.924,9265.53 153.54,9258.54 143.685,9258.54C133.904,9258.54 125.888,9265.24 125.888,9276.04C125.888,9276.93 126.036,9278.84 126.108,9279.8L150.673,9279.8Z" style="fill:rgb(7,5,5);fill-rule:nonzero;"/>
            </g>
            <g transform="matrix(1,0,0,1,0,-9176.02)">
                <path d="M50.151,9401L225.127,9401L225.127,9226.02L50.151,9226.02L50.151,9401ZM219.294,9395.16L55.983,9395.16L55.983,9231.85L219.294,9231.85L219.294,9395.16Z" style="fill:rgb(7,5,5);fill-rule:nonzero;"/>
            </g>
        </g>
    </g>
</svg>
